<svg xmlns="http://www.w3.org/2000/svg" viewBox="0 0 1280 640" width="1280" height="640">
  <defs>
    <!-- Litmus brand: black bg, deep greens, bright accent greens -->
    <radialGradient id="bgCore" cx="0.5" cy="0.5" r="0.8">
      <stop offset="0%" stop-color="#060806"/>
      <stop offset="100%" stop-color="#000000"/>
    </radialGradient>

    <!-- Litmus green atmosphere (left) -->
    <radialGradient id="edgeAtmo" cx="0.05" cy="0.5" r="0.5">
      <stop offset="0%" stop-color="#0f6246" stop-opacity="0.14"/>
      <stop offset="60%" stop-color="#0f6246" stop-opacity="0.04"/>
      <stop offset="100%" stop-color="#0f6246" stop-opacity="0"/>
    </radialGradient>

    <!-- Grafana orange atmosphere (right) -->
    <radialGradient id="grafAtmo" cx="0.95" cy="0.5" r="0.5">
      <stop offset="0%" stop-color="#FF9830" stop-opacity="0.1"/>
      <stop offset="60%" stop-color="#FF9830" stop-opacity="0.03"/>
      <stop offset="100%" stop-color="#FF9830" stop-opacity="0"/>
    </radialGradient>

    <!-- Central convergence -->
    <radialGradient id="nexus" cx="0.5" cy="0.58" r="0.12">
      <stop offset="0%" stop-color="#3ADB90" stop-opacity="0.06"/>
      <stop offset="100%" stop-color="#000000" stop-opacity="0"/>
    </radialGradient>

    <!-- Stream gradients -->
    <linearGradient id="flowA" x1="0" y1="0" x2="1" y2="0">
      <stop offset="0%" stop-color="#3ADB90" stop-opacity="0.85"/>
      <stop offset="35%" stop-color="#3ADB90" stop-opacity="0.35"/>
      <stop offset="50%" stop-color="#6BF09C" stop-opacity="0.12"/>
      <stop offset="65%" stop-color="#FF9830" stop-opacity="0.35"/>
      <stop offset="100%" stop-color="#FF9830" stop-opacity="0.85"/>
    </linearGradient>
    <linearGradient id="flowB" x1="0" y1="0" x2="1" y2="0">
      <stop offset="0%" stop-color="#3ADB90" stop-opacity="0.5"/>
      <stop offset="50%" stop-color="#278A5E" stop-opacity="0.08"/>
      <stop offset="100%" stop-color="#FF9830" stop-opacity="0.5"/>
    </linearGradient>
    <linearGradient id="flowC" x1="0" y1="0" x2="1" y2="0">
      <stop offset="0%" stop-color="#3ADB90" stop-opacity="0.2"/>
      <stop offset="50%" stop-color="#1a3a2a" stop-opacity="0.05"/>
      <stop offset="100%" stop-color="#FF9830" stop-opacity="0.2"/>
    </linearGradient>

    <!-- Hex fill -->
    <linearGradient id="hexFill" x1="0" y1="0" x2="0" y2="1">
      <stop offset="0%" stop-color="#0f6246" stop-opacity="0.1"/>
      <stop offset="100%" stop-color="#0f6246" stop-opacity="0.03"/>
    </linearGradient>

    <!-- Filters -->
    <filter id="glow" x="-100%" y="-100%" width="300%" height="300%">
      <feGaussianBlur stdDeviation="4" result="b"/>
      <feMerge><feMergeNode in="b"/><feMergeNode in="SourceGraphic"/></feMerge>
    </filter>
    <filter id="bigGlow" x="-100%" y="-100%" width="300%" height="300%">
      <feGaussianBlur stdDeviation="12" result="b"/>
      <feMerge><feMergeNode in="b"/><feMergeNode in="SourceGraphic"/></feMerge>
    </filter>
    <filter id="soft" x="-50%" y="-50%" width="200%" height="200%">
      <feGaussianBlur stdDeviation="2.5" result="b"/>
      <feMerge><feMergeNode in="b"/><feMergeNode in="SourceGraphic"/></feMerge>
    </filter>

    <!-- Hex grid pattern -->
    <pattern id="hexGrid" width="52" height="90" patternUnits="userSpaceOnUse" patternTransform="translate(0,5)">
      <polygon points="26,0 52,15 52,45 26,60 0,45 0,15" fill="none" stroke="#0f6246" stroke-width="0.35" opacity="0.2"/>
      <polygon points="26,30 52,45 52,75 26,90 0,75 0,45" fill="none" stroke="#0f6246" stroke-width="0.35" opacity="0.12"/>
    </pattern>

    <!-- Dot grid -->
    <pattern id="dotGrid" width="28" height="28" patternUnits="userSpaceOnUse">
      <circle cx="14" cy="14" r="0.5" fill="#FF9830" opacity="0.12"/>
    </pattern>

    <!-- Grafana icon gradient (orange → yellow) -->
    <linearGradient id="grafanaIconGrad" x1="0.5" y1="0" x2="0.5" y2="1" gradientUnits="objectBoundingBox">
      <stop offset="0" stop-color="#F05A28"/>
      <stop offset="1" stop-color="#FBCA0A"/>
    </linearGradient>

    <!-- Clip regions -->
    <clipPath id="leftClip"><rect x="0" y="0" width="500" height="640"/></clipPath>
    <clipPath id="rightClip"><rect x="780" y="0" width="500" height="640"/></clipPath>
  </defs>

  <!-- ═══ BACKGROUND ═══ -->
  <rect width="1280" height="640" fill="url(#bgCore)"/>
  <rect width="1280" height="640" fill="url(#edgeAtmo)"/>
  <rect width="1280" height="640" fill="url(#grafAtmo)"/>
  <rect width="1280" height="640" fill="url(#nexus)"/>

  <!-- Pattern layers -->
  <rect width="1280" height="640" fill="url(#hexGrid)" clip-path="url(#leftClip)" opacity="0.5"/>
  <rect width="1280" height="640" fill="url(#dotGrid)" clip-path="url(#rightClip)" opacity="0.5"/>

  <!-- ═══ EDGE HEXAGONAL CLUSTER (left) ═══ -->
  <!-- Row 1 -->
  <polygon points="110,265 145,245 180,265 180,305 145,325 110,305" fill="url(#hexFill)" stroke="#3ADB90" stroke-width="0.7" opacity="0.45"/>
  <polygon points="175,230 210,210 245,230 245,270 210,290 175,270" fill="url(#hexFill)" stroke="#3ADB90" stroke-width="0.5" opacity="0.3"/>
  <!-- Row 2 (core) -->
  <polygon points="175,300 210,280 245,300 245,340 210,360 175,340" fill="url(#hexFill)" stroke="#3ADB90" stroke-width="0.9" opacity="0.6"/>
  <polygon points="240,265 275,245 310,265 310,305 275,325 240,305" fill="url(#hexFill)" stroke="#3ADB90" stroke-width="0.8" opacity="0.5"/>
  <polygon points="240,335 275,315 310,335 310,375 275,395 240,375" fill="url(#hexFill)" stroke="#3ADB90" stroke-width="0.7" opacity="0.4"/>
  <!-- Row 3 -->
  <polygon points="110,335 145,315 180,335 180,375 145,395 110,375" fill="url(#hexFill)" stroke="#3ADB90" stroke-width="0.6" opacity="0.35"/>
  <polygon points="175,370 210,350 245,370 245,410 210,430 175,410" fill="url(#hexFill)" stroke="#3ADB90" stroke-width="0.5" opacity="0.25"/>
  <!-- Outer faint hexes -->
  <polygon points="305,300 340,280 375,300 375,340 340,360 305,340" fill="none" stroke="#3ADB90" stroke-width="0.4" opacity="0.2"/>
  <polygon points="305,230 340,210 375,230 375,270 340,290 305,270" fill="none" stroke="#3ADB90" stroke-width="0.3" opacity="0.15"/>
  <polygon points="305,370 340,350 375,370 375,410 340,430 305,410" fill="none" stroke="#3ADB90" stroke-width="0.3" opacity="0.15"/>

  <!-- Hex core nodes -->
  <circle cx="210" cy="320" r="4" fill="#3ADB90" opacity="0.6" filter="url(#glow)"/>
  <circle cx="275" cy="285" r="3" fill="#3ADB90" opacity="0.45" filter="url(#soft)"/>
  <circle cx="275" cy="355" r="2.5" fill="#3ADB90" opacity="0.35" filter="url(#soft)"/>
  <circle cx="145" cy="285" r="2.5" fill="#3ADB90" opacity="0.35" filter="url(#soft)"/>
  <circle cx="145" cy="355" r="2" fill="#3ADB90" opacity="0.25"/>
  <circle cx="210" cy="250" r="2" fill="#3ADB90" opacity="0.25"/>
  <circle cx="210" cy="390" r="2" fill="#3ADB90" opacity="0.2"/>
  <circle cx="340" cy="320" r="2" fill="#3ADB90" opacity="0.15"/>

  <!-- ═══ GRAFANA DASHBOARDS (right) ═══ -->
  <!-- Card: Time series (main) -->
  <rect x="945" y="280" width="260" height="100" rx="5" fill="#FF9830" fill-opacity="0.02" stroke="#FF9830" stroke-width="0.9" opacity="0.5"/>
  <!-- Chart header bar -->
  <rect x="950" y="285" width="50" height="3" rx="1.5" fill="#FF9830" opacity="0.2"/>
  <!-- Time series line -->
  <polyline points="958,360 975,348 990,352 1008,330 1025,340 1040,322 1055,335 1070,318 1090,328 1108,310 1128,320 1148,305 1168,315 1188,300"
            fill="none" stroke="#FF9830" stroke-width="1.4" opacity="0.5" stroke-linecap="round" stroke-linejoin="round"/>
  <!-- Area fill -->
  <path d="M 958,360 L 975,348 990,352 1008,330 1025,340 1040,322 1055,335 1070,318 1090,328 1108,310 1128,320 1148,305 1168,315 1188,300 L 1188,372 L 958,372 Z"
        fill="#FF9830" opacity="0.03"/>

  <!-- Card: Bar chart (top right) -->
  <rect x="1080" y="215" width="130" height="55" rx="4" fill="#FF9830" fill-opacity="0.02" stroke="#FF9830" stroke-width="0.7" opacity="0.4"/>
  <rect x="1085" y="220" width="35" height="3" rx="1.5" fill="#FF9830" opacity="0.15"/>
  <rect x="1090" y="248" width="5" height="14" rx="1" fill="#FF9830" opacity="0.25"/>
  <rect x="1100" y="242" width="5" height="20" rx="1" fill="#FF9830" opacity="0.3"/>
  <rect x="1110" y="245" width="5" height="17" rx="1" fill="#FF9830" opacity="0.25"/>
  <rect x="1120" y="238" width="5" height="24" rx="1" fill="#FF9830" opacity="0.35"/>
  <rect x="1130" y="244" width="5" height="18" rx="1" fill="#FF9830" opacity="0.3"/>
  <rect x="1140" y="240" width="5" height="22" rx="1" fill="#FF9830" opacity="0.28"/>
  <rect x="1150" y="236" width="5" height="26" rx="1" fill="#FF9830" opacity="0.38"/>
  <rect x="1160" y="242" width="5" height="20" rx="1" fill="#FF9830" opacity="0.3"/>
  <rect x="1170" y="248" width="5" height="14" rx="1" fill="#FF9830" opacity="0.22"/>
  <rect x="1180" y="239" width="5" height="23" rx="1" fill="#FF9830" opacity="0.33"/>
  <rect x="1190" y="234" width="5" height="28" rx="1" fill="#FF9830" opacity="0.4"/>

  <!-- Card: Gauge (bottom left) -->
  <rect x="945" y="392" width="120" height="72" rx="4" fill="#FF9830" fill-opacity="0.02" stroke="#FF9830" stroke-width="0.7" opacity="0.4"/>
  <rect x="950" y="397" width="30" height="3" rx="1.5" fill="#FF9830" opacity="0.15"/>
  <path d="M 985,445 A 22,22 0 0,1 1025,445" fill="none" stroke="#FF9830" stroke-width="2" opacity="0.15" stroke-linecap="round"/>
  <path d="M 985,445 A 22,22 0 0,1 1018,426" fill="none" stroke="#FF9830" stroke-width="2" opacity="0.5" stroke-linecap="round"/>
  <!-- Gauge value -->
  <text x="1005" y="458" text-anchor="middle" fill="#FF9830" font-family="'Manrope', 'Rubik', system-ui, sans-serif" font-size="9" font-weight="600" opacity="0.4">78%</text>

  <!-- Card: Stat panel (bottom center) -->
  <rect x="1075" y="392" width="80" height="72" rx="4" fill="#FF9830" fill-opacity="0.02" stroke="#FF9830" stroke-width="0.7" opacity="0.35"/>
  <rect x="1080" y="397" width="25" height="3" rx="1.5" fill="#FF9830" opacity="0.12"/>
  <text x="1115" y="432" text-anchor="middle" fill="#FF9830" font-family="'Manrope', 'Rubik', system-ui, sans-serif" font-size="18" font-weight="700" opacity="0.35">24.7</text>
  <text x="1115" y="446" text-anchor="middle" fill="#FF9830" font-family="'Manrope', 'Rubik', system-ui, sans-serif" font-size="7" font-weight="500" letter-spacing="1" opacity="0.25">RPM</text>

  <!-- Card: Sparkline (bottom right) -->
  <rect x="1165" y="392" width="100" height="72" rx="4" fill="#FF9830" fill-opacity="0.02" stroke="#FF9830" stroke-width="0.7" opacity="0.35"/>
  <rect x="1170" y="397" width="28" height="3" rx="1.5" fill="#FF9830" opacity="0.12"/>
  <polyline points="1178,440 1188,432 1198,436 1210,425 1222,430 1232,418 1242,424 1252,415"
            fill="none" stroke="#FF9830" stroke-width="1" opacity="0.35" stroke-linecap="round"/>

  <!-- Live indicator dots (top-left of each card) -->
  <circle cx="953" cy="287" r="2" fill="#3ADB90" opacity="0.6" filter="url(#soft)"/>
  <circle cx="1088" cy="222" r="1.5" fill="#3ADB90" opacity="0.4"/>
  <circle cx="953" cy="399" r="1.5" fill="#3ADB90" opacity="0.4"/>
  <circle cx="1083" cy="399" r="1.5" fill="#3ADB90" opacity="0.3"/>
  <circle cx="1173" cy="399" r="1.5" fill="#3ADB90" opacity="0.3"/>

  <!-- ═══ CENTRAL NEXUS ═══ -->
  <circle cx="640" cy="355" r="42" fill="none" stroke="#ffffff" stroke-width="0.3" opacity="0.06" stroke-dasharray="3,6"/>
  <circle cx="640" cy="355" r="28" fill="none" stroke="#ffffff" stroke-width="0.4" opacity="0.08"/>
  <circle cx="640" cy="355" r="14" fill="#3ADB90" opacity="0.03" filter="url(#bigGlow)"/>
  <circle cx="640" cy="355" r="5" fill="#ffffff" opacity="0.08" filter="url(#glow)"/>
  <circle cx="640" cy="355" r="2" fill="#ffffff" opacity="0.2"/>

  <!-- ═══ FLOWING DATA STREAMS ═══ -->
  <!-- Primary streams -->
  <path d="M 310,285 C 420,285 500,270 570,310 Q 640,350 640,355 Q 640,360 710,350 C 780,340 860,330 945,330"
        fill="none" stroke="url(#flowA)" stroke-width="1.6" opacity="0.55" filter="url(#glow)"/>
  <path d="M 275,355 C 380,355 460,390 560,360 Q 630,338 640,355 Q 650,372 720,380 C 800,390 870,370 945,365"
        fill="none" stroke="url(#flowA)" stroke-width="1.3" opacity="0.4" filter="url(#glow)"/>
  <path d="M 310,320 C 400,320 470,290 560,330 Q 635,355 640,355 Q 645,355 720,335 C 800,315 870,305 945,305"
        fill="none" stroke="url(#flowB)" stroke-width="1" opacity="0.35" filter="url(#soft)"/>

  <!-- Ghost streams -->
  <path d="M 275,250 C 360,250 450,240 550,290 Q 630,330 640,345 Q 650,360 730,390 C 820,420 880,435 945,430"
        fill="none" stroke="url(#flowC)" stroke-width="0.8" opacity="0.25"/>
  <path d="M 275,395 C 360,395 440,420 540,385 Q 625,355 640,355 Q 655,355 740,320 C 830,285 890,255 945,250"
        fill="none" stroke="url(#flowC)" stroke-width="0.8" opacity="0.25"/>

  <!-- ═══ PARTICLES ═══ -->
  <!-- Green (edge → center) -->
  <circle cx="330" cy="290" r="2" fill="#3ADB90" opacity="0.7" filter="url(#glow)"/>
  <circle cx="380" cy="350" r="1.8" fill="#3ADB90" opacity="0.55" filter="url(#soft)"/>
  <circle cx="420" cy="300" r="2.2" fill="#3ADB90" opacity="0.65" filter="url(#glow)"/>
  <circle cx="470" cy="370" r="1.5" fill="#3ADB90" opacity="0.4" filter="url(#soft)"/>
  <circle cx="510" cy="310" r="1.8" fill="#3ADB90" opacity="0.5" filter="url(#soft)"/>
  <circle cx="560" cy="345" r="1.5" fill="#3ADB90" opacity="0.35"/>
  <circle cx="600" cy="330" r="1.5" fill="#278A5E" opacity="0.3"/>

  <!-- Transition -->
  <circle cx="640" cy="355" r="2" fill="#6BF09C" opacity="0.25" filter="url(#soft)"/>

  <!-- Orange (center → dashboards) -->
  <circle cx="680" cy="360" r="1.5" fill="#c98a40" opacity="0.3"/>
  <circle cx="720" cy="345" r="1.5" fill="#FF9830" opacity="0.35"/>
  <circle cx="770" cy="370" r="1.8" fill="#FF9830" opacity="0.45" filter="url(#soft)"/>
  <circle cx="810" cy="340" r="2" fill="#FF9830" opacity="0.5" filter="url(#soft)"/>
  <circle cx="855" cy="355" r="2.2" fill="#FF9830" opacity="0.55" filter="url(#glow)"/>
  <circle cx="900" cy="330" r="1.8" fill="#FF9830" opacity="0.6" filter="url(#glow)"/>
  <circle cx="935" cy="345" r="2" fill="#FF9830" opacity="0.65" filter="url(#glow)"/>

  <!-- Ambient dust -->
  <circle cx="160" cy="180" r="0.8" fill="#3ADB90" opacity="0.15"/>
  <circle cx="90" cy="460" r="1" fill="#3ADB90" opacity="0.1"/>
  <circle cx="350" cy="480" r="0.7" fill="#3ADB90" opacity="0.1"/>
  <circle cx="450" cy="190" r="0.8" fill="#3ADB90" opacity="0.08"/>
  <circle cx="1200" cy="180" r="0.8" fill="#FF9830" opacity="0.15"/>
  <circle cx="1100" cy="490" r="1" fill="#FF9830" opacity="0.1"/>
  <circle cx="980" cy="195" r="0.7" fill="#FF9830" opacity="0.08"/>
  <circle cx="640" cy="490" r="0.6" fill="#ffffff" opacity="0.05"/>

  <!-- ═══ SIDE LABELS WITH LOGOS ═══ -->
  <!-- Litmus logo + label — group centered at x=175 -->
  <g opacity="0.6" transform="translate(175, 538)">
    <!-- Logo: viewBox 152x324, scale 0.15 → 22.8x48.6px, offset -11.4 to center -->
    <g transform="translate(-11.4, 0) scale(0.15)">
      <path fill="#3ADB90" d="M1.000000,89.468658 C2.326456,89.461205 3.766118,89.725609 4.962140,90.413574 C19.512487,98.783081 33.963848,107.327454 48.601837,115.539574 C51.686676,117.270218 52.606979,119.202019 52.596680,122.573570 C52.485771,158.894318 52.600040,195.215927 52.414501,231.536057 C52.393650,235.617081 53.731010,237.682938 57.204277,239.623047 C71.709328,247.725342 85.989960,256.228577 100.456734,264.400970 C103.105728,265.897400 104.084671,267.495911 104.055695,270.581757 C103.888344,288.407501 103.975304,306.235565 103.988068,324.531433 C103.250000,325.000000 102.500000,325.000000 101.304733,324.657379 C80.991470,312.832733 61.144184,301.314697 41.248222,289.881348 C27.867790,282.192200 14.418489,274.622925 1.000000,267.000000 C1.000000,207.979111 1.000000,148.958206 1.000000,89.468658z"/>
      <path fill="#f2f8f6" d="M153.000000,234.531342 C143.622131,229.742905 134.229736,224.511520 124.871765,219.219238 C119.090416,215.949661 113.472908,212.368729 107.562843,209.357376 C104.528381,207.811249 103.848755,205.866959 103.857971,202.696442 C103.964378,166.069107 103.875900,129.441177 104.011047,92.814018 C104.023735,89.374443 102.954575,87.572479 99.965820,85.889557 C85.208656,77.580116 70.644974,68.927460 55.907501,60.582260 C53.229488,59.065819 52.276562,57.384087 52.299164,54.330467 C52.428520,36.850578 52.339306,19.369070 52.162148,1.444056 C53.388889,1.000000 54.777779,1.000000 56.673260,1.336318 C89.119904,20.115091 121.059952,38.557545 153.000000,57.000000 C153.000000,116.020897 153.000000,175.041794 153.000000,234.531342z"/>
    </g>
    <text x="0" y="62" text-anchor="middle" fill="#3ADB90" font-family="'Rubik', system-ui, sans-serif" font-size="11" font-weight="600" letter-spacing="3.5">LITMUS EDGE</text>
  </g>

  <!-- Grafana icon + label — group centered at x=1105 -->
  <g opacity="0.6" transform="translate(1105, 538)">
    <!-- Icon: viewBox 351x365, scale 0.115 → 40.4x42px, offset -20.2 to center -->
    <g transform="translate(-20.2, 0) scale(0.115)">
      <path fill="url(#grafanaIconGrad)" d="M342,161.2c-0.6-6.1-1.6-13.1-3.6-20.9c-2-7.7-5-16.2-9.4-25c-4.4-8.8-10.1-17.9-17.5-26.8 c-2.9-3.5-6.1-6.9-9.5-10.2c5.1-20.3-6.2-37.9-6.2-37.9c-19.5-1.2-31.9,6.1-36.5,9.4c-0.8-0.3-1.5-0.7-2.3-1 c-3.3-1.3-6.7-2.6-10.3-3.7c-3.5-1.1-7.1-2.1-10.8-3c-3.7-0.9-7.4-1.6-11.2-2.2c-0.7-0.1-1.3-0.2-2-0.3 c-8.5-27.2-32.9-38.6-32.9-38.6c-27.3,17.3-32.4,41.5-32.4,41.5s-0.1,0.5-0.3,1.4c-1.5,0.4-3,0.9-4.5,1.3c-2.1,0.6-4.2,1.4-6.2,2.2 c-2.1,0.8-4.1,1.6-6.2,2.5c-4.1,1.8-8.2,3.8-12.2,6c-3.9,2.2-7.7,4.6-11.4,7.1c-0.5-0.2-1-0.4-1-0.4c-37.8-14.4-71.3,2.9-71.3,2.9 c-3.1,40.2,15.1,65.5,18.7,70.1c-0.9,2.5-1.7,5-2.5,7.5c-2.8,9.1-4.9,18.4-6.2,28.1c-0.2,1.4-0.4,2.8-0.5,4.2 C18.8,192.7,8.5,228,8.5,228c29.1,33.5,63.1,35.6,63.1,35.6c0,0,0.1-0.1,0.1-0.1c4.3,7.7,9.3,15,14.9,21.9c2.4,2.9,4.8,5.6,7.4,8.3 c-10.6,30.4,1.5,55.6,1.5,55.6c32.4,1.2,53.7-14.2,58.2-17.7c3.2,1.1,6.5,2.1,9.8,2.9c10,2.6,20.2,4.1,30.4,4.5 c2.5,0.1,5.1,0.2,7.6,0.1l1.2,0l0.8,0l1.6,0l1.6-0.1l0,0.1c15.3,21.8,42.1,24.9,42.1,24.9c19.1-20.1,20.2-40.1,20.2-44.4l0,0 c0,0,0-0.1,0-0.3c0-0.4,0-0.6,0-0.6l0,0c0-0.3,0-0.6,0-0.9c4-2.8,7.8-5.8,11.4-9.1c7.6-6.9,14.3-14.8,19.9-23.3 c0.5-0.8,1-1.6,1.5-2.4c21.6,1.2,36.9-13.4,36.9-13.4c-3.6-22.5-16.4-33.5-19.1-35.6l0,0c0,0-0.1-0.1-0.3-0.2 c-0.2-0.1-0.2-0.2-0.2-0.2c0,0,0,0,0,0c-0.1-0.1-0.3-0.2-0.5-0.3c0.1-1.4,0.2-2.7,0.3-4.1c0.2-2.4,0.2-4.9,0.2-7.3l0-1.8l0-0.9 l0-0.5c0-0.6,0-0.4,0-0.6l-0.1-1.5l-0.1-2c0-0.7-0.1-1.3-0.2-1.9c-0.1-0.6-0.1-1.3-0.2-1.9l-0.2-1.9l-0.3-1.9 c-0.4-2.5-0.8-4.9-1.4-7.4c-2.3-9.7-6.1-18.9-11-27.2c-5-8.3-11.2-15.6-18.3-21.8c-7-6.2-14.9-11.2-23.1-14.9 c-8.3-3.7-16.9-6.1-25.5-7.2c-4.3-0.6-8.6-0.8-12.9-0.7l-1.6,0l-0.4,0c-0.1,0-0.6,0-0.5,0l-0.7,0l-1.6,0.1c-0.6,0-1.2,0.1-1.7,0.1 c-2.2,0.2-4.4,0.5-6.5,0.9c-8.6,1.6-16.7,4.7-23.8,9c-7.1,4.3-13.3,9.6-18.3,15.6c-5,6-8.9,12.7-11.6,19.6c-2.7,6.9-4.2,14.1-4.6,21 c-0.1,1.7-0.1,3.5-0.1,5.2c0,0.4,0,0.9,0,1.3l0.1,1.4c0.1,0.8,0.1,1.7,0.2,2.5c0.3,3.5,1,6.9,1.9,10.1c1.9,6.5,4.9,12.4,8.6,17.4 c3.7,5,8.2,9.1,12.9,12.4c4.7,3.2,9.8,5.5,14.8,7c5,1.5,10,2.1,14.7,2.1c0.6,0,1.2,0,1.7,0c0.3,0,0.6,0,0.9,0c0.3,0,0.6,0,0.9-0.1 c0.5,0,1-0.1,1.5-0.1c0.1,0,0.3,0,0.4-0.1l0.5-0.1c0.3,0,0.6-0.1,0.9-0.1c0.6-0.1,1.1-0.2,1.7-0.3c0.6-0.1,1.1-0.2,1.6-0.4 c1.1-0.2,2.1-0.6,3.1-0.9c2-0.7,4-1.5,5.7-2.4c1.8-0.9,3.4-2,5-3c0.4-0.3,0.9-0.6,1.3-1c1.6-1.3,1.9-3.7,0.6-5.3 c-1.1-1.4-3.1-1.8-4.7-0.9c-0.4,0.2-0.8,0.4-1.2,0.6c-1.4,0.7-2.8,1.3-4.3,1.8c-1.5,0.5-3.1,0.9-4.7,1.2c-0.8,0.1-1.6,0.2-2.5,0.3 c-0.4,0-0.8,0.1-1.3,0.1c-0.4,0-0.9,0-1.2,0c-0.4,0-0.8,0-1.2,0c-0.5,0-1,0-1.5-0.1c0,0-0.3,0-0.1,0l-0.2,0l-0.3,0 c-0.2,0-0.5,0-0.7-0.1c-0.5-0.1-0.9-0.1-1.4-0.2c-3.7-0.5-7.4-1.6-10.9-3.2c-3.6-1.6-7-3.8-10.1-6.6c-3.1-2.8-5.8-6.1-7.9-9.9 c-2.1-3.8-3.6-8-4.3-12.4c-0.3-2.2-0.5-4.5-0.4-6.7c0-0.6,0.1-1.2,0.1-1.8c0,0.2,0-0.1,0-0.1l0-0.2l0-0.5c0-0.3,0.1-0.6,0.1-0.9 c0.1-1.2,0.3-2.4,0.5-3.6c1.7-9.6,6.5-19,13.9-26.1c1.9-1.8,3.9-3.4,6-4.9c2.1-1.5,4.4-2.8,6.8-3.9c2.4-1.1,4.8-2,7.4-2.7 c2.5-0.7,5.1-1.1,7.8-1.4c1.3-0.1,2.6-0.2,4-0.2c0.4,0,0.6,0,0.9,0l1.1,0l0.7,0c0.3,0,0,0,0.1,0l0.3,0l1.1,0.1 c2.9,0.2,5.7,0.6,8.5,1.3c5.6,1.2,11.1,3.3,16.2,6.1c10.2,5.7,18.9,14.5,24.2,25.1c2.7,5.3,4.6,11,5.5,16.9c0.2,1.5,0.4,3,0.5,4.5 l0.1,1.1l0.1,1.1c0,0.4,0,0.8,0,1.1c0,0.4,0,0.8,0,1.1l0,1l0,1.1c0,0.7-0.1,1.9-0.1,2.6c-0.1,1.6-0.3,3.3-0.5,4.9 c-0.2,1.6-0.5,3.2-0.8,4.8c-0.3,1.6-0.7,3.2-1.1,4.7c-0.8,3.1-1.8,6.2-3,9.3c-2.4,6-5.6,11.8-9.4,17.1 c-7.7,10.6-18.2,19.2-30.2,24.7c-6,2.7-12.3,4.7-18.8,5.7c-3.2,0.6-6.5,0.9-9.8,1l-0.6,0l-0.5,0l-1.1,0l-1.6,0l-0.8,0 c0.4,0-0.1,0-0.1,0l-0.3,0c-1.8,0-3.5-0.1-5.3-0.3c-7-0.5-13.9-1.8-20.7-3.7c-6.7-1.9-13.2-4.6-19.4-7.8 c-12.3-6.6-23.4-15.6-32-26.5c-4.3-5.4-8.1-11.3-11.2-17.4c-3.1-6.1-5.6-12.6-7.4-19.1c-1.8-6.6-2.9-13.3-3.4-20.1l-0.1-1.3l0-0.3 l0-0.3l0-0.6l0-1.1l0-0.3l0-0.4l0-0.8l0-1.6l0-0.3c0,0,0,0.1,0-0.1l0-0.6c0-0.8,0-1.7,0-2.5c0.1-3.3,0.4-6.8,0.8-10.2 c0.4-3.4,1-6.9,1.7-10.3c0.7-3.4,1.5-6.8,2.5-10.2c1.9-6.7,4.3-13.2,7.1-19.3c5.7-12.2,13.1-23.1,22-31.8c2.2-2.2,4.5-4.2,6.9-6.2 c2.4-1.9,4.9-3.7,7.5-5.4c2.5-1.7,5.2-3.2,7.9-4.6c1.3-0.7,2.7-1.4,4.1-2c0.7-0.3,1.4-0.6,2.1-0.9c0.7-0.3,1.4-0.6,2.1-0.9 c2.8-1.2,5.7-2.2,8.7-3.1c0.7-0.2,1.5-0.4,2.2-0.7c0.7-0.2,1.5-0.4,2.2-0.6c1.5-0.4,3-0.8,4.5-1.1c0.7-0.2,1.5-0.3,2.3-0.5 c0.8-0.2,1.5-0.3,2.3-0.5c0.8-0.1,1.5-0.3,2.3-0.4l1.1-0.2l1.2-0.2c0.8-0.1,1.5-0.2,2.3-0.3c0.9-0.1,1.7-0.2,2.6-0.3 c0.7-0.1,1.9-0.2,2.6-0.3c0.5-0.1,1.1-0.1,1.6-0.2l1.1-0.1l0.5-0.1l0.6,0c0.9-0.1,1.7-0.1,2.6-0.2l1.3-0.1c0,0,0.5,0,0.1,0l0.3,0 l0.6,0c0.7,0,1.5-0.1,2.2-0.1c2.9-0.1,5.9-0.1,8.8,0c5.8,0.2,11.5,0.9,17,1.9c11.1,2.1,21.5,5.6,31,10.3 c9.5,4.6,17.9,10.3,25.3,16.5c0.5,0.4,0.9,0.8,1.4,1.2c0.4,0.4,0.9,0.8,1.3,1.2c0.9,0.8,1.7,1.6,2.6,2.4c0.9,0.8,1.7,1.6,2.5,2.4 c0.8,0.8,1.6,1.6,2.4,2.5c3.1,3.3,6,6.6,8.6,10c5.2,6.7,9.4,13.5,12.7,19.9c0.2,0.4,0.4,0.8,0.6,1.2c0.2,0.4,0.4,0.8,0.6,1.2 c0.4,0.8,0.8,1.6,1.1,2.4c0.4,0.8,0.7,1.5,1.1,2.3c0.3,0.8,0.7,1.5,1,2.3c1.2,3,2.4,5.9,3.3,8.6c1.5,4.4,2.6,8.3,3.5,11.7 c0.3,1.4,1.6,2.3,3,2.1c1.5-0.1,2.6-1.3,2.6-2.8C342.6,170.4,342.5,166.1,342,161.2z"/>
    </g>
    <text x="0" y="62" text-anchor="middle" fill="#FF9830" font-family="'Rubik', system-ui, sans-serif" font-size="11" font-weight="600" letter-spacing="3.5">GRAFANA</text>
  </g>

  <!-- ═══ CORNER HUD ═══ -->
  <g stroke="#0f6246" stroke-width="1" fill="none" opacity="0.5">
    <path d="M 14,14 L 50,14"/><path d="M 14,14 L 14,50"/>
    <path d="M 1266,14 L 1230,14"/><path d="M 1266,14 L 1266,50"/>
    <path d="M 14,626 L 50,626"/><path d="M 14,626 L 14,590"/>
    <path d="M 1266,626 L 1230,626"/><path d="M 1266,626 L 1266,590"/>
  </g>
  <circle cx="14" cy="14" r="1.5" fill="#0f6246" opacity="0.5"/>
  <circle cx="1266" cy="14" r="1.5" fill="#0f6246" opacity="0.5"/>
  <circle cx="14" cy="626" r="1.5" fill="#0f6246" opacity="0.5"/>
  <circle cx="1266" cy="626" r="1.5" fill="#0f6246" opacity="0.5"/>

  <!-- Thin HUD edge lines -->
  <line x1="64" y1="14" x2="160" y2="14" stroke="#0f6246" stroke-width="0.3" opacity="0.25"/>
  <line x1="1120" y1="14" x2="1216" y2="14" stroke="#0f6246" stroke-width="0.3" opacity="0.25"/>
  <line x1="64" y1="626" x2="160" y2="626" stroke="#0f6246" stroke-width="0.3" opacity="0.25"/>
  <line x1="1120" y1="626" x2="1216" y2="626" stroke="#0f6246" stroke-width="0.3" opacity="0.25"/>

  <!-- ═══ TYPOGRAPHY (Litmus marketing style) ═══ -->
  <!-- Main headline — Litmus logo + Rubik Bold title -->
  <!-- Logo: scale 0.175 → 26.6x56.7px, centered with 48px title cap height -->
  <g opacity="0.9" transform="translate(329, 49) scale(0.175)">
    <path fill="#3ADB90" d="M1.000000,89.468658 C2.326456,89.461205 3.766118,89.725609 4.962140,90.413574 C19.512487,98.783081 33.963848,107.327454 48.601837,115.539574 C51.686676,117.270218 52.606979,119.202019 52.596680,122.573570 C52.485771,158.894318 52.600040,195.215927 52.414501,231.536057 C52.393650,235.617081 53.731010,237.682938 57.204277,239.623047 C71.709328,247.725342 85.989960,256.228577 100.456734,264.400970 C103.105728,265.897400 104.084671,267.495911 104.055695,270.581757 C103.888344,288.407501 103.975304,306.235565 103.988068,324.531433 C103.250000,325.000000 102.500000,325.000000 101.304733,324.657379 C80.991470,312.832733 61.144184,301.314697 41.248222,289.881348 C27.867790,282.192200 14.418489,274.622925 1.000000,267.000000 C1.000000,207.979111 1.000000,148.958206 1.000000,89.468658z"/>
    <path fill="#f2f8f6" d="M153.000000,234.531342 C143.622131,229.742905 134.229736,224.511520 124.871765,219.219238 C119.090416,215.949661 113.472908,212.368729 107.562843,209.357376 C104.528381,207.811249 103.848755,205.866959 103.857971,202.696442 C103.964378,166.069107 103.875900,129.441177 104.011047,92.814018 C104.023735,89.374443 102.954575,87.572479 99.965820,85.889557 C85.208656,77.580116 70.644974,68.927460 55.907501,60.582260 C53.229488,59.065819 52.276562,57.384087 52.299164,54.330467 C52.428520,36.850578 52.339306,19.369070 52.162148,1.444056 C53.388889,1.000000 54.777779,1.000000 56.673260,1.336318 C89.119904,20.115091 121.059952,38.557545 153.000000,57.000000 C153.000000,116.020897 153.000000,175.041794 153.000000,234.531342z"/>
  </g>
  <text x="655" y="95" text-anchor="middle" fill="#ffffff" font-family="'Rubik', system-ui, sans-serif" font-size="48" font-weight="700" letter-spacing="-0.5" opacity="0.95">Litmus Edge Data Source</text>

  <!-- Subtitle — Grafana icon + bold "Grafana" -->
  <!-- Icon: scale 0.055 → 19x20px, centered with 22px cap height -->
  <g transform="translate(601, 125) scale(0.055)">
    <path fill="url(#grafanaIconGrad)" d="M342,161.2c-0.6-6.1-1.6-13.1-3.6-20.9c-2-7.7-5-16.2-9.4-25c-4.4-8.8-10.1-17.9-17.5-26.8 c-2.9-3.5-6.1-6.9-9.5-10.2c5.1-20.3-6.2-37.9-6.2-37.9c-19.5-1.2-31.9,6.1-36.5,9.4c-0.8-0.3-1.5-0.7-2.3-1 c-3.3-1.3-6.7-2.6-10.3-3.7c-3.5-1.1-7.1-2.1-10.8-3c-3.7-0.9-7.4-1.6-11.2-2.2c-0.7-0.1-1.3-0.2-2-0.3 c-8.5-27.2-32.9-38.6-32.9-38.6c-27.3,17.3-32.4,41.5-32.4,41.5s-0.1,0.5-0.3,1.4c-1.5,0.4-3,0.9-4.5,1.3c-2.1,0.6-4.2,1.4-6.2,2.2 c-2.1,0.8-4.1,1.6-6.2,2.5c-4.1,1.8-8.2,3.8-12.2,6c-3.9,2.2-7.7,4.6-11.4,7.1c-0.5-0.2-1-0.4-1-0.4c-37.8-14.4-71.3,2.9-71.3,2.9 c-3.1,40.2,15.1,65.5,18.7,70.1c-0.9,2.5-1.7,5-2.5,7.5c-2.8,9.1-4.9,18.4-6.2,28.1c-0.2,1.4-0.4,2.8-0.5,4.2 C18.8,192.7,8.5,228,8.5,228c29.1,33.5,63.1,35.6,63.1,35.6c0,0,0.1-0.1,0.1-0.1c4.3,7.7,9.3,15,14.9,21.9c2.4,2.9,4.8,5.6,7.4,8.3 c-10.6,30.4,1.5,55.6,1.5,55.6c32.4,1.2,53.7-14.2,58.2-17.7c3.2,1.1,6.5,2.1,9.8,2.9c10,2.6,20.2,4.1,30.4,4.5 c2.5,0.1,5.1,0.2,7.6,0.1l1.2,0l0.8,0l1.6,0l1.6-0.1l0,0.1c15.3,21.8,42.1,24.9,42.1,24.9c19.1-20.1,20.2-40.1,20.2-44.4l0,0 c0,0,0-0.1,0-0.3c0-0.4,0-0.6,0-0.6l0,0c0-0.3,0-0.6,0-0.9c4-2.8,7.8-5.8,11.4-9.1c7.6-6.9,14.3-14.8,19.9-23.3 c0.5-0.8,1-1.6,1.5-2.4c21.6,1.2,36.9-13.4,36.9-13.4c-3.6-22.5-16.4-33.5-19.1-35.6l0,0c0,0-0.1-0.1-0.3-0.2 c-0.2-0.1-0.2-0.2-0.2-0.2c0,0,0,0,0,0c-0.1-0.1-0.3-0.2-0.5-0.3c0.1-1.4,0.2-2.7,0.3-4.1c0.2-2.4,0.2-4.9,0.2-7.3l0-1.8l0-0.9 l0-0.5c0-0.6,0-0.4,0-0.6l-0.1-1.5l-0.1-2c0-0.7-0.1-1.3-0.2-1.9c-0.1-0.6-0.1-1.3-0.2-1.9l-0.2-1.9l-0.3-1.9 c-0.4-2.5-0.8-4.9-1.4-7.4c-2.3-9.7-6.1-18.9-11-27.2c-5-8.3-11.2-15.6-18.3-21.8c-7-6.2-14.9-11.2-23.1-14.9 c-8.3-3.7-16.9-6.1-25.5-7.2c-4.3-0.6-8.6-0.8-12.9-0.7l-1.6,0l-0.4,0c-0.1,0-0.6,0-0.5,0l-0.7,0l-1.6,0.1c-0.6,0-1.2,0.1-1.7,0.1 c-2.2,0.2-4.4,0.5-6.5,0.9c-8.6,1.6-16.7,4.7-23.8,9c-7.1,4.3-13.3,9.6-18.3,15.6c-5,6-8.9,12.7-11.6,19.6c-2.7,6.9-4.2,14.1-4.6,21 c-0.1,1.7-0.1,3.5-0.1,5.2c0,0.4,0,0.9,0,1.3l0.1,1.4c0.1,0.8,0.1,1.7,0.2,2.5c0.3,3.5,1,6.9,1.9,10.1c1.9,6.5,4.9,12.4,8.6,17.4 c3.7,5,8.2,9.1,12.9,12.4c4.7,3.2,9.8,5.5,14.8,7c5,1.5,10,2.1,14.7,2.1c0.6,0,1.2,0,1.7,0c0.3,0,0.6,0,0.9,0c0.3,0,0.6,0,0.9-0.1 c0.5,0,1-0.1,1.5-0.1c0.1,0,0.3,0,0.4-0.1l0.5-0.1c0.3,0,0.6-0.1,0.9-0.1c0.6-0.1,1.1-0.2,1.7-0.3c0.6-0.1,1.1-0.2,1.6-0.4 c1.1-0.2,2.1-0.6,3.1-0.9c2-0.7,4-1.5,5.7-2.4c1.8-0.9,3.4-2,5-3c0.4-0.3,0.9-0.6,1.3-1c1.6-1.3,1.9-3.7,0.6-5.3 c-1.1-1.4-3.1-1.8-4.7-0.9c-0.4,0.2-0.8,0.4-1.2,0.6c-1.4,0.7-2.8,1.3-4.3,1.8c-1.5,0.5-3.1,0.9-4.7,1.2c-0.8,0.1-1.6,0.2-2.5,0.3 c-0.4,0-0.8,0.1-1.3,0.1c-0.4,0-0.9,0-1.2,0c-0.4,0-0.8,0-1.2,0c-0.5,0-1,0-1.5-0.1c0,0-0.3,0-0.1,0l-0.2,0l-0.3,0 c-0.2,0-0.5,0-0.7-0.1c-0.5-0.1-0.9-0.1-1.4-0.2c-3.7-0.5-7.4-1.6-10.9-3.2c-3.6-1.6-7-3.8-10.1-6.6c-3.1-2.8-5.8-6.1-7.9-9.9 c-2.1-3.8-3.6-8-4.3-12.4c-0.3-2.2-0.5-4.5-0.4-6.7c0-0.6,0.1-1.2,0.1-1.8c0,0.2,0-0.1,0-0.1l0-0.2l0-0.5c0-0.3,0.1-0.6,0.1-0.9 c0.1-1.2,0.3-2.4,0.5-3.6c1.7-9.6,6.5-19,13.9-26.1c1.9-1.8,3.9-3.4,6-4.9c2.1-1.5,4.4-2.8,6.8-3.9c2.4-1.1,4.8-2,7.4-2.7 c2.5-0.7,5.1-1.1,7.8-1.4c1.3-0.1,2.6-0.2,4-0.2c0.4,0,0.6,0,0.9,0l1.1,0l0.7,0c0.3,0,0,0,0.1,0l0.3,0l1.1,0.1 c2.9,0.2,5.7,0.6,8.5,1.3c5.6,1.2,11.1,3.3,16.2,6.1c10.2,5.7,18.9,14.5,24.2,25.1c2.7,5.3,4.6,11,5.5,16.9c0.2,1.5,0.4,3,0.5,4.5 l0.1,1.1l0.1,1.1c0,0.4,0,0.8,0,1.1c0,0.4,0,0.8,0,1.1l0,1l0,1.1c0,0.7-0.1,1.9-0.1,2.6c-0.1,1.6-0.3,3.3-0.5,4.9 c-0.2,1.6-0.5,3.2-0.8,4.8c-0.3,1.6-0.7,3.2-1.1,4.7c-0.8,3.1-1.8,6.2-3,9.3c-2.4,6-5.6,11.8-9.4,17.1 c-7.7,10.6-18.2,19.2-30.2,24.7c-6,2.7-12.3,4.7-18.8,5.7c-3.2,0.6-6.5,0.9-9.8,1l-0.6,0l-0.5,0l-1.1,0l-1.6,0l-0.8,0 c0.4,0-0.1,0-0.1,0l-0.3,0c-1.8,0-3.5-0.1-5.3-0.3c-7-0.5-13.9-1.8-20.7-3.7c-6.7-1.9-13.2-4.6-19.4-7.8 c-12.3-6.6-23.4-15.6-32-26.5c-4.3-5.4-8.1-11.3-11.2-17.4c-3.1-6.1-5.6-12.6-7.4-19.1c-1.8-6.6-2.9-13.3-3.4-20.1l-0.1-1.3l0-0.3 l0-0.3l0-0.6l0-1.1l0-0.3l0-0.4l0-0.8l0-1.6l0-0.3c0,0,0,0.1,0-0.1l0-0.6c0-0.8,0-1.7,0-2.5c0.1-3.3,0.4-6.8,0.8-10.2 c0.4-3.4,1-6.9,1.7-10.3c0.7-3.4,1.5-6.8,2.5-10.2c1.9-6.7,4.3-13.2,7.1-19.3c5.7-12.2,13.1-23.1,22-31.8c2.2-2.2,4.5-4.2,6.9-6.2 c2.4-1.9,4.9-3.7,7.5-5.4c2.5-1.7,5.2-3.2,7.9-4.6c1.3-0.7,2.7-1.4,4.1-2c0.7-0.3,1.4-0.6,2.1-0.9c0.7-0.3,1.4-0.6,2.1-0.9 c2.8-1.2,5.7-2.2,8.7-3.1c0.7-0.2,1.5-0.4,2.2-0.7c0.7-0.2,1.5-0.4,2.2-0.6c1.5-0.4,3-0.8,4.5-1.1c0.7-0.2,1.5-0.3,2.3-0.5 c0.8-0.2,1.5-0.3,2.3-0.5c0.8-0.1,1.5-0.3,2.3-0.4l1.1-0.2l1.2-0.2c0.8-0.1,1.5-0.2,2.3-0.3c0.9-0.1,1.7-0.2,2.6-0.3 c0.7-0.1,1.9-0.2,2.6-0.3c0.5-0.1,1.1-0.1,1.6-0.2l1.1-0.1l0.5-0.1l0.6,0c0.9-0.1,1.7-0.1,2.6-0.2l1.3-0.1c0,0,0.5,0,0.1,0l0.3,0 l0.6,0c0.7,0,1.5-0.1,2.2-0.1c2.9-0.1,5.9-0.1,8.8,0c5.8,0.2,11.5,0.9,17,1.9c11.1,2.1,21.5,5.6,31,10.3 c9.5,4.6,17.9,10.3,25.3,16.5c0.5,0.4,0.9,0.8,1.4,1.2c0.4,0.4,0.9,0.8,1.3,1.2c0.9,0.8,1.7,1.6,2.6,2.4c0.9,0.8,1.7,1.6,2.5,2.4 c0.8,0.8,1.6,1.6,2.4,2.5c3.1,3.3,6,6.6,8.6,10c5.2,6.7,9.4,13.5,12.7,19.9c0.2,0.4,0.4,0.8,0.6,1.2c0.2,0.4,0.4,0.8,0.6,1.2 c0.4,0.8,0.8,1.6,1.1,2.4c0.4,0.8,0.7,1.5,1.1,2.3c0.3,0.8,0.7,1.5,1,2.3c1.2,3,2.4,5.9,3.3,8.6c1.5,4.4,2.6,8.3,3.5,11.7 c0.3,1.4,1.6,2.3,3,2.1c1.5-0.1,2.6-1.3,2.6-2.8C342.6,170.4,342.5,166.1,342,161.2z"/>
  </g>
  <text x="668" y="142" text-anchor="middle" fill="#ffffff" font-family="'Rubik', system-ui, sans-serif" font-size="22" font-weight="700" letter-spacing="0.5" opacity="0.9">Grafana</text>

  <!-- Separator -->
  <line x1="545" y1="168" x2="735" y2="168" stroke="#0f6246" stroke-width="0.5" opacity="0.25"/>
  <circle cx="640" cy="168" r="1.5" fill="#3ADB90" opacity="0.3"/>

  <!-- Tagline — Manrope, marketing style -->
  <text x="640" y="198" text-anchor="middle" fill="#3ADB90" font-family="'Manrope', 'Rubik', system-ui, sans-serif" font-size="14" font-weight="500" letter-spacing="2" opacity="0.6">STREAM LIVE OT DATA INTO REAL-TIME DASHBOARDS</text>

  <!-- Version / bottom badge -->
  <rect x="580" y="568" width="120" height="24" rx="12" fill="none" stroke="#0f6246" stroke-width="0.6" opacity="0.25"/>
  <text x="640" y="583" text-anchor="middle" fill="#ffffff" font-family="'Manrope', 'Rubik', system-ui, sans-serif" font-size="9" font-weight="500" letter-spacing="2" opacity="0.25">OPEN SOURCE</text>
</svg>
