    <svg xmlns="http://www.w3.org/2000/svg" viewBox="0 0 152 324">
      <path
        fill="#3adb90"
        d="M1.000000,89.468658 C2.326456,89.461205 3.766118,89.725609 4.962140,90.413574 C19.512487,98.783081 33.963848,107.327454 48.601837,115.539574 C51.686676,117.270218 52.606979,119.202019 52.596680,122.573570 C52.485771,158.894318 52.600040,195.215927 52.414501,231.536057 C52.393650,235.617081 53.731010,237.682938 57.204277,239.623047 C71.709328,247.725342 85.989960,256.228577 100.456734,264.400970 C103.105728,265.897400 104.084671,267.495911 104.055695,270.581757 C103.888344,288.407501 103.975304,306.235565 103.988068,324.531433 C103.250000,325.000000 102.500000,325.000000 101.304733,324.657379 C80.991470,312.832733 61.144184,301.314697 41.248222,289.881348 C27.867790,282.192200 14.418489,274.622925 1.000000,267.000000 C1.000000,207.979111 1.000000,148.958206 1.000000,89.468658z"
      />
      <path
      fill="#f2f8f6"
        d="M153.000000,234.531342 C143.622131,229.742905 134.229736,224.511520 124.871765,219.219238 C119.090416,215.949661 113.472908,212.368729 107.562843,209.357376 C104.528381,207.811249 103.848755,205.866959 103.857971,202.696442 C103.964378,166.069107 103.875900,129.441177 104.011047,92.814018 C104.023735,89.374443 102.954575,87.572479 99.965820,85.889557 C85.208656,77.580116 70.644974,68.927460 55.907501,60.582260 C53.229488,59.065819 52.276562,57.384087 52.299164,54.330467 C52.428520,36.850578 52.339306,19.369070 52.162148,1.444056 C53.388889,1.000000 54.777779,1.000000 56.673260,1.336318 C89.119904,20.115091 121.059952,38.557545 153.000000,57.000000 C153.000000,116.020897 153.000000,175.041794 153.000000,234.531342z"
      />
    </svg>